<svg version="1.0" preserveAspectRatio="xMidYMid meet" height="44" viewBox="0 0 76.5 32.999998" zoomAndPan="magnify" width="102" xmlns:xlink="http://www.w3.org/1999/xlink" xmlns="http://www.w3.org/2000/svg"><defs><clipPath id="8cb8a3e8a3"><path clip-rule="nonzero" d="M 0 0.105469 L 76 0.105469 L 76 32.890625 L 0 32.890625 Z M 0 0.105469"></path></clipPath><clipPath id="5424b258e4"><path clip-rule="nonzero" d="M 0 0.105469 L 76.003906 0.105469 L 76.003906 32.890625 L 0 32.890625 Z M 0 0.105469"></path></clipPath></defs><g clip-path="url(#8cb8a3e8a3)"><path fill-rule="nonzero" fill-opacity="1" d="M 2.980469 0.480469 L 73.023438 0.480469 C 73.367188 0.480469 73.703125 0.546875 74.019531 0.679688 C 74.339844 0.8125 74.621094 1 74.867188 1.242188 C 75.113281 1.488281 75.300781 1.769531 75.433594 2.089844 C 75.566406 2.410156 75.628906 2.742188 75.628906 3.085938 L 75.628906 29.914062 C 75.628906 30.257812 75.566406 30.589844 75.433594 30.910156 C 75.300781 31.230469 75.113281 31.511719 74.867188 31.757812 C 74.621094 32 74.339844 32.1875 74.019531 32.320312 C 73.703125 32.453125 73.367188 32.519531 73.023438 32.519531 L 2.980469 32.519531 C 2.632812 32.519531 2.300781 32.453125 1.984375 32.320312 C 1.664062 32.1875 1.382812 32 1.136719 31.757812 C 0.890625 31.511719 0.703125 31.230469 0.570312 30.910156 C 0.4375 30.589844 0.371094 30.257812 0.371094 29.914062 L 0.371094 3.085938 C 0.371094 2.742188 0.4375 2.410156 0.570312 2.089844 C 0.703125 1.769531 0.890625 1.488281 1.136719 1.242188 C 1.382812 1 1.664062 0.8125 1.984375 0.679688 C 2.300781 0.546875 2.632812 0.480469 2.980469 0.480469 Z M 2.980469 0.480469" fill="#ffffff"></path></g><g clip-path="url(#5424b258e4)"><path stroke-miterlimit="4" stroke-opacity="1" stroke-width="1" stroke="#d2d0cc" d="M 3.999932 0.501024 L 98.000957 0.501024 C 98.462286 0.501024 98.91313 0.590144 99.337763 0.768385 C 99.767638 0.946626 100.145089 1.19826 100.475358 1.523287 C 100.805628 1.853557 101.057262 2.231008 101.235503 2.660882 C 101.413743 3.090757 101.497621 3.536359 101.497621 3.997688 L 101.497621 40.002319 C 101.497621 40.463648 101.413743 40.90925 101.235503 41.339125 C 101.057262 41.769 100.805628 42.146451 100.475358 42.47672 C 100.145089 42.801747 99.767638 43.053381 99.337763 43.231622 C 98.91313 43.409863 98.462286 43.498983 98.000957 43.498983 L 3.999932 43.498983 C 3.533361 43.498983 3.087759 43.409863 2.663126 43.231622 C 2.233252 43.053381 1.855801 42.801747 1.525531 42.47672 C 1.195261 42.146451 0.943627 41.769 0.765387 41.339125 C 0.587146 40.90925 0.498026 40.463648 0.498026 40.002319 L 0.498026 3.997688 C 0.498026 3.536359 0.587146 3.090757 0.765387 2.660882 C 0.943627 2.231008 1.195261 1.853557 1.525531 1.523287 C 1.855801 1.19826 2.233252 0.946626 2.663126 0.768385 C 3.087759 0.590144 3.533361 0.501024 3.999932 0.501024 Z M 3.999932 0.501024" stroke-linejoin="miter" fill="none" transform="matrix(0.74513, 0, 0, 0.74513, 0.000000000000010589, 0.107141)" stroke-linecap="butt"></path></g><path fill-rule="nonzero" fill-opacity="1" d="M 37.238281 12.195312 C 36.824219 11.96875 36.613281 11.78125 36.613281 11.519531 C 36.613281 11.1875 36.90625 10.972656 37.371094 10.972656 C 37.910156 10.972656 38.390625 11.199219 38.390625 11.199219 L 38.769531 10.035156 C 38.769531 10.035156 38.421875 9.761719 37.394531 9.761719 C 35.964844 9.761719 34.976562 10.582031 34.976562 11.734375 C 34.976562 12.382812 35.4375 12.882812 36.054688 13.238281 C 36.550781 13.523438 36.730469 13.722656 36.730469 14.019531 C 36.730469 14.328125 36.480469 14.578125 36.019531 14.578125 C 35.328125 14.578125 34.679688 14.222656 34.679688 14.222656 L 34.277344 15.382812 C 34.277344 15.382812 34.878906 15.789062 35.886719 15.789062 C 37.359375 15.789062 38.414062 15.066406 38.414062 13.761719 C 38.414062 13.058594 37.882812 12.5625 37.238281 12.195312 Z M 43.097656 9.753906 C 42.375 9.753906 41.804688 10.097656 41.367188 10.617188 L 41.34375 10.605469 L 41.972656 7.320312 L 40.335938 7.320312 L 38.746094 15.679688 L 40.382812 15.679688 L 40.929688 12.824219 C 41.140625 11.746094 41.699219 11.078125 42.222656 11.078125 C 42.589844 11.078125 42.730469 11.328125 42.730469 11.6875 C 42.730469 11.910156 42.707031 12.183594 42.660156 12.410156 L 42.042969 15.683594 L 43.679688 15.683594 L 44.320312 12.300781 C 44.390625 11.949219 44.429688 11.59375 44.441406 11.234375 C 44.4375 10.308594 43.953125 9.753906 43.097656 9.753906 Z M 48.136719 9.753906 C 46.167969 9.753906 44.867188 11.53125 44.867188 13.511719 C 44.867188 14.78125 45.648438 15.800781 47.117188 15.800781 C 49.050781 15.800781 50.355469 14.070312 50.355469 12.039062 C 50.355469 10.867188 49.667969 9.753906 48.136719 9.753906 Z M 47.332031 14.542969 C 46.773438 14.542969 46.539062 14.070312 46.539062 13.476562 C 46.539062 12.539062 47.023438 11.007812 47.914062 11.007812 C 48.496094 11.007812 48.683594 11.507812 48.683594 11.992188 C 48.683594 13 48.199219 14.542969 47.332031 14.542969 Z M 54.542969 9.753906 C 53.4375 9.753906 52.808594 10.722656 52.808594 10.722656 L 52.789062 10.722656 L 52.882812 9.847656 L 51.433594 9.847656 C 51.347656 10.574219 51.238281 11.296875 51.101562 12.015625 L 49.964844 18.003906 L 51.601562 18.003906 L 52.050781 15.585938 L 52.085938 15.585938 C 52.085938 15.585938 52.421875 15.800781 53.046875 15.800781 C 54.96875 15.800781 56.226562 13.832031 56.226562 11.839844 C 56.226562 10.738281 55.738281 9.753906 54.542969 9.753906 Z M 52.976562 14.566406 C 52.550781 14.566406 52.300781 14.328125 52.300781 14.328125 L 52.574219 12.800781 C 52.761719 11.78125 53.296875 11.105469 53.867188 11.105469 C 54.363281 11.105469 54.519531 11.566406 54.519531 12.003906 C 54.519531 13.058594 53.890625 14.566406 52.976562 14.566406 Z M 58.5625 7.402344 C 58.039062 7.402344 57.625 7.820312 57.625 8.351562 C 57.625 8.839844 57.933594 9.171875 58.394531 9.171875 L 58.417969 9.171875 C 58.929688 9.171875 59.367188 8.828125 59.382812 8.222656 C 59.382812 7.75 59.058594 7.402344 58.5625 7.402344 Z M 56.273438 15.679688 L 57.910156 15.679688 L 59.023438 9.882812 L 57.375 9.882812 Z M 63.1875 9.871094 L 62.046875 9.871094 L 62.109375 9.597656 C 62.203125 9.039062 62.535156 8.542969 63.078125 8.542969 C 63.371094 8.542969 63.601562 8.625 63.601562 8.625 L 63.921875 7.34375 C 63.921875 7.34375 63.636719 7.203125 63.03125 7.203125 C 62.453125 7.203125 61.871094 7.367188 61.429688 7.75 C 60.875 8.222656 60.613281 8.910156 60.484375 9.597656 L 60.4375 9.871094 L 59.675781 9.871094 L 59.441406 11.105469 L 60.199219 11.105469 L 59.332031 15.683594 L 60.96875 15.683594 L 61.835938 11.105469 L 62.960938 11.105469 Z M 67.125 9.882812 C 67.125 9.882812 66.101562 12.460938 65.640625 13.867188 L 65.617188 13.867188 C 65.585938 13.414062 65.214844 9.882812 65.214844 9.882812 L 63.496094 9.882812 L 64.480469 15.207031 C 64.503906 15.324219 64.492188 15.394531 64.445312 15.480469 C 64.253906 15.847656 63.933594 16.203125 63.554688 16.464844 C 63.246094 16.6875 62.902344 16.832031 62.628906 16.925781 L 63.082031 18.3125 C 63.410156 18.242188 64.101562 17.96875 64.679688 17.425781 C 65.429688 16.726562 66.117188 15.644531 66.828125 14.175781 L 68.832031 9.882812 Z M 67.125 9.882812" fill="#000000"></path><path fill-rule="nonzero" fill-opacity="0.6" d="M 42.460938 23.9375 C 42.460938 23.007812 41.871094 22.679688 40.894531 22.441406 C 40.167969 22.269531 39.992188 22.09375 39.992188 21.726562 C 39.992188 21.371094 40.25 21.140625 40.726562 21.140625 C 41.167969 21.140625 41.4375 21.390625 41.515625 21.800781 L 42.363281 21.683594 C 42.253906 20.972656 41.710938 20.457031 40.730469 20.457031 C 39.757812 20.457031 39.136719 21.007812 39.136719 21.792969 C 39.136719 22.632812 39.625 23.007812 40.636719 23.242188 C 41.335938 23.410156 41.570312 23.582031 41.570312 24.019531 C 41.570312 24.421875 41.25 24.695312 40.773438 24.695312 C 40.148438 24.695312 39.925781 24.3125 39.859375 23.871094 L 38.988281 23.984375 C 39.09375 24.714844 39.636719 25.378906 40.765625 25.378906 C 41.804688 25.378906 42.460938 24.769531 42.460938 23.9375 Z M 43.613281 25.3125 L 46.582031 25.3125 L 46.582031 24.597656 L 44.519531 24.597656 L 44.519531 23.1875 L 46.101562 23.1875 L 46.101562 22.511719 L 44.519531 22.511719 L 44.519531 21.234375 L 46.476562 21.234375 L 46.476562 20.519531 L 43.613281 20.519531 Z M 51.355469 23.816406 L 50.503906 23.691406 C 50.425781 24.179688 50.089844 24.644531 49.484375 24.644531 C 48.78125 24.644531 48.378906 24.121094 48.378906 23.167969 L 48.378906 22.652344 C 48.378906 21.707031 48.808594 21.175781 49.480469 21.175781 C 50.03125 21.175781 50.332031 21.542969 50.40625 22.074219 L 51.316406 21.953125 C 51.203125 21.101562 50.585938 20.457031 49.484375 20.457031 C 48.3125 20.457031 47.433594 21.308594 47.433594 22.664062 L 47.433594 23.167969 C 47.433594 24.535156 48.183594 25.378906 49.484375 25.378906 C 50.695312 25.378906 51.242188 24.507812 51.355469 23.816406 Z M 55.09375 20.519531 L 55.09375 23.515625 C 55.09375 24.355469 54.789062 24.648438 54.1875 24.648438 C 53.558594 24.648438 53.308594 24.320312 53.308594 23.554688 L 53.308594 20.519531 L 52.390625 20.519531 L 52.390625 23.609375 C 52.390625 24.777344 53.046875 25.378906 54.175781 25.378906 C 55.359375 25.378906 56.003906 24.75 56.003906 23.570312 L 56.003906 20.519531 Z M 57.324219 25.3125 L 58.230469 25.3125 L 58.230469 23.347656 L 58.839844 23.347656 L 59.925781 25.3125 L 60.90625 25.3125 L 59.71875 23.207031 C 60.261719 23.054688 60.664062 22.699219 60.664062 21.988281 L 60.664062 21.886719 C 60.664062 20.941406 60.007812 20.519531 58.953125 20.519531 L 57.324219 20.519531 Z M 58.230469 22.71875 L 58.230469 21.222656 L 58.945312 21.222656 C 59.460938 21.222656 59.765625 21.402344 59.765625 21.90625 L 59.765625 22 C 59.765625 22.488281 59.484375 22.71875 58.941406 22.71875 Z M 61.910156 25.3125 L 64.878906 25.3125 L 64.878906 24.597656 L 62.8125 24.597656 L 62.8125 23.1875 L 64.398438 23.1875 L 64.398438 22.511719 L 62.8125 22.511719 L 62.8125 21.234375 L 64.773438 21.234375 L 64.773438 20.519531 L 61.910156 20.519531 Z M 61.910156 25.3125" fill="#000000"></path><path fill-rule="nonzero" fill-opacity="1" d="M 21.808594 11.136719 C 21.792969 11.042969 21.738281 10.992188 21.644531 10.984375 C 21.578125 10.976562 20.253906 10.957031 20.253906 10.957031 C 20.253906 10.957031 19.148438 9.882812 19.042969 9.773438 C 18.929688 9.664062 18.71875 9.699219 18.636719 9.722656 L 18.078125 9.894531 C 18.011719 9.667969 17.921875 9.453125 17.8125 9.242188 C 17.417969 8.492188 16.84375 8.09375 16.144531 8.09375 C 16.09375 8.09375 16.046875 8.097656 16 8.101562 C 15.976562 8.074219 15.957031 8.050781 15.9375 8.027344 C 15.632812 7.703125 15.242188 7.546875 14.777344 7.558594 C 13.878906 7.585938 12.980469 8.234375 12.253906 9.390625 C 11.742188 10.203125 11.355469 11.222656 11.242188 12.011719 L 9.472656 12.558594 C 8.949219 12.722656 8.933594 12.738281 8.867188 13.230469 C 8.816406 13.605469 7.453125 24.15625 7.453125 24.15625 L 18.886719 26.132812 L 23.84375 24.902344 C 23.84375 24.902344 21.820312 11.226562 21.808594 11.136719 Z M 17.507812 10.074219 L 16.621094 10.347656 C 16.613281 9.890625 16.558594 9.257812 16.347656 8.710938 C 17.027344 8.839844 17.367188 9.613281 17.507812 10.074219 Z M 16.019531 10.53125 L 14.113281 11.125 C 14.296875 10.417969 14.644531 9.714844 15.078125 9.253906 C 15.234375 9.082031 15.460938 8.890625 15.722656 8.78125 C 15.972656 9.300781 16.027344 10.035156 16.019531 10.53125 Z M 14.796875 8.160156 C 15.007812 8.152344 15.183594 8.199219 15.335938 8.300781 C 15.09375 8.425781 14.859375 8.609375 14.636719 8.84375 C 14.066406 9.457031 13.628906 10.410156 13.453125 11.328125 L 11.886719 11.8125 C 12.195312 10.367188 13.40625 8.199219 14.796875 8.160156 Z M 14.796875 8.160156" fill="#95bf47"></path><path fill-rule="nonzero" fill-opacity="1" d="M 21.644531 10.984375 C 21.183594 10.972656 20.71875 10.964844 20.257812 10.957031 C 20.257812 10.957031 19.152344 9.882812 19.042969 9.773438 C 19 9.734375 18.945312 9.710938 18.886719 9.703125 L 18.886719 26.132812 L 23.84375 24.902344 C 23.84375 24.902344 21.820312 11.230469 21.808594 11.136719 C 21.792969 11.042969 21.742188 10.992188 21.644531 10.984375 Z M 21.644531 10.984375" fill="#5e8e3e"></path><path fill-rule="nonzero" fill-opacity="1" d="M 16.140625 13.53125 L 15.5625 15.6875 C 15.5625 15.6875 14.921875 15.394531 14.160156 15.441406 C 13.046875 15.511719 13.03125 16.21875 13.046875 16.394531 C 13.105469 17.355469 15.640625 17.566406 15.78125 19.824219 C 15.894531 21.597656 14.839844 22.8125 13.324219 22.90625 C 11.5 23.023438 10.5 21.949219 10.5 21.949219 L 10.882812 20.304688 C 10.882812 20.304688 11.894531 21.066406 12.703125 21.015625 C 13.230469 20.984375 13.417969 20.554688 13.398438 20.25 C 13.320312 18.992188 11.257812 19.066406 11.125 17.003906 C 11.015625 15.265625 12.15625 13.507812 14.675781 13.347656 C 15.644531 13.285156 16.140625 13.53125 16.140625 13.53125 Z M 16.140625 13.53125" fill="#ffffff"></path><path fill-rule="nonzero" fill-opacity="1" d="M 29.058594 6.066406 L 29.804688 6.066406 L 29.804688 26.933594 L 29.058594 26.933594 Z M 29.058594 6.066406" fill="#d2d0cc"></path></svg>