<svg version="1.0" preserveAspectRatio="xMidYMid meet" height="44" viewBox="0 0 76.5 32.999998" zoomAndPan="magnify" width="102" xmlns:xlink="http://www.w3.org/1999/xlink" xmlns="http://www.w3.org/2000/svg"><defs><clipPath id="61febc3b78"><path clip-rule="nonzero" d="M 0 0.105469 L 76 0.105469 L 76 32.890625 L 0 32.890625 Z M 0 0.105469"></path></clipPath><clipPath id="8c486911bd"><path clip-rule="nonzero" d="M 2.980469 0.105469 L 73.023438 0.105469 C 73.8125 0.105469 74.570312 0.421875 75.128906 0.980469 C 75.6875 1.539062 76.003906 2.296875 76.003906 3.085938 L 76.003906 29.914062 C 76.003906 30.703125 75.6875 31.460938 75.128906 32.019531 C 74.570312 32.578125 73.8125 32.894531 73.023438 32.894531 L 2.980469 32.894531 C 2.191406 32.894531 1.433594 32.578125 0.871094 32.019531 C 0.3125 31.460938 0 30.703125 0 29.914062 L 0 3.085938 C 0 2.296875 0.3125 1.539062 0.871094 0.980469 C 1.433594 0.421875 2.191406 0.105469 2.980469 0.105469 Z M 2.980469 0.105469"></path></clipPath><clipPath id="70ad1d9ccd"><path clip-rule="nonzero" d="M 0 0.105469 L 76.003906 0.105469 L 76.003906 32.890625 L 0 32.890625 Z M 0 0.105469"></path></clipPath><clipPath id="f48d114939"><path clip-rule="nonzero" d="M 2.980469 0.105469 L 73.023438 0.105469 C 73.8125 0.105469 74.570312 0.421875 75.128906 0.980469 C 75.6875 1.539062 76.003906 2.296875 76.003906 3.085938 L 76.003906 29.914062 C 76.003906 30.703125 75.6875 31.460938 75.128906 32.019531 C 74.570312 32.578125 73.8125 32.894531 73.023438 32.894531 L 2.980469 32.894531 C 2.191406 32.894531 1.433594 32.578125 0.871094 32.019531 C 0.3125 31.460938 0 30.703125 0 29.914062 L 0 3.085938 C 0 2.296875 0.3125 1.539062 0.871094 0.980469 C 1.433594 0.421875 2.191406 0.105469 2.980469 0.105469 Z M 2.980469 0.105469"></path></clipPath><clipPath id="363d9dec98"><path clip-rule="nonzero" d="M 22 7 L 66.234375 7 L 66.234375 26 L 22 26 Z M 22 7"></path></clipPath><clipPath id="10269d1958"><path clip-rule="nonzero" d="M 9.605469 2.503906 L 34.523438 2.503906 L 34.523438 30.765625 L 9.605469 30.765625 Z M 9.605469 2.503906"></path></clipPath><clipPath id="a511d85d01"><path clip-rule="nonzero" d="M 10 2.480469 L 35 2.480469 L 35 18 L 10 18 Z M 10 2.480469"></path></clipPath><clipPath id="0ece8f0dc8"><path clip-rule="nonzero" d="M 21.8125 30.667969 L 22.316406 30.667969 L 22.316406 30.765625 L 21.8125 30.765625 Z M 21.8125 30.667969"></path></clipPath><clipPath id="3729a00f08"><path clip-rule="nonzero" d="M 9.605469 9.386719 L 28.859375 9.386719 L 28.859375 30.765625 L 9.605469 30.765625 Z M 9.605469 9.386719"></path></clipPath><clipPath id="55dc27bd1f"><path clip-rule="nonzero" d="M 13 2.480469 L 22 2.480469 L 22 8 L 13 8 Z M 13 2.480469"></path></clipPath><clipPath id="6036ecd213"><path clip-rule="nonzero" d="M 11 2.480469 L 35 2.480469 L 35 24 L 11 24 Z M 11 2.480469"></path></clipPath></defs><g clip-path="url(#61febc3b78)"><g clip-path="url(#8c486911bd)"><path fill-rule="nonzero" fill-opacity="1" d="M 0 0.105469 L 75.945312 0.105469 L 75.945312 32.894531 L 0 32.894531 Z M 0 0.105469" fill="#ffffff"></path></g></g><g clip-path="url(#70ad1d9ccd)"><g clip-path="url(#f48d114939)"><path stroke-miterlimit="4" stroke-opacity="1" stroke-width="2" stroke="#d2d0cc" d="M 3.999932 -0.00224406 L 98.000957 -0.00224406 C 99.059917 -0.00224406 100.076938 0.422388 100.826597 1.172048 C 101.576257 1.921708 102.000889 2.938728 102.000889 3.997688 L 102.000889 40.002319 C 102.000889 41.061279 101.576257 42.0783 100.826597 42.827959 C 100.076938 43.577619 99.059917 44.002251 98.000957 44.002251 L 3.999932 44.002251 C 2.940972 44.002251 1.923951 43.577619 1.169049 42.827959 C 0.41939 42.0783 -0.000000214577 41.061279 -0.000000214577 40.002319 L -0.000000214577 3.997688 C -0.000000214577 2.938728 0.41939 1.921708 1.169049 1.172048 C 1.923951 0.422388 2.940972 -0.00224406 3.999932 -0.00224406 Z M 3.999932 -0.00224406" stroke-linejoin="miter" fill="none" transform="matrix(0.74513, 0, 0, 0.74513, 0.000000159888, 0.107141)" stroke-linecap="butt"></path></g></g><g clip-path="url(#363d9dec98)"><path fill-rule="nonzero" fill-opacity="1" d="M 66.082031 25.753906 L 23.03125 25.753906 C 22.945312 25.753906 22.875 25.683594 22.875 25.597656 L 22.875 7.671875 C 22.875 7.585938 22.945312 7.515625 23.03125 7.515625 L 66.082031 7.515625 C 66.164062 7.515625 66.234375 7.585938 66.234375 7.671875 L 66.234375 25.597656 C 66.234375 25.683594 66.164062 25.753906 66.082031 25.753906" fill="#83c927"></path></g><path fill-rule="nonzero" fill-opacity="1" d="M 65.683594 25.230469 L 23.429688 25.230469 C 23.347656 25.230469 23.277344 25.164062 23.277344 25.078125 L 23.277344 8.191406 C 23.277344 8.105469 23.347656 8.039062 23.429688 8.039062 L 65.683594 8.039062 C 65.765625 8.039062 65.832031 8.105469 65.832031 8.191406 L 65.832031 25.078125 C 65.832031 25.164062 65.765625 25.230469 65.683594 25.230469" fill="#f5fad8"></path><path fill-rule="nonzero" fill-opacity="1" d="M 64.378906 24.355469 L 24.230469 24.355469 C 24.152344 24.355469 24.089844 24.292969 24.089844 24.214844 L 24.089844 9.054688 C 24.089844 8.976562 24.152344 8.914062 24.230469 8.914062 L 64.378906 8.914062 C 64.453125 8.914062 64.515625 8.976562 64.515625 9.054688 L 64.515625 24.214844 C 64.515625 24.292969 64.453125 24.355469 64.378906 24.355469" fill="#83c927"></path><path fill-rule="nonzero" fill-opacity="1" d="M 29.558594 25.753906 L 28.308594 25.753906 C 28.441406 25.582031 28.574219 25.40625 28.710938 25.230469 L 29.960938 25.230469 C 29.828125 25.40625 29.695312 25.582031 29.558594 25.753906 M 33.378906 8.039062 L 32.125 8.039062 C 31.738281 7.808594 31.308594 7.632812 30.824219 7.519531 C 30.820312 7.515625 30.820312 7.515625 30.816406 7.515625 L 32.070312 7.515625 L 32.078125 7.519531 C 32.5625 7.632812 32.996094 7.808594 33.378906 8.039062" fill="#6bb42f"></path><path fill-rule="nonzero" fill-opacity="1" d="M 29.960938 25.230469 L 28.710938 25.230469 C 28.921875 24.945312 29.136719 24.652344 29.347656 24.355469 L 30.601562 24.355469 C 30.390625 24.652344 30.175781 24.945312 29.960938 25.230469 M 34.40625 8.914062 L 33.152344 8.914062 C 32.859375 8.570312 32.519531 8.277344 32.125 8.039062 L 33.378906 8.039062 C 33.773438 8.277344 34.113281 8.570312 34.40625 8.914062" fill="#bee6a6"></path><path fill-rule="nonzero" fill-opacity="1" d="M 30.601562 24.355469 L 29.347656 24.355469 C 30.84375 22.253906 32.269531 19.847656 33.390625 17.480469 C 34.855469 14.3125 34.808594 10.851562 33.152344 8.914062 L 34.40625 8.914062 C 36.0625 10.851562 36.109375 14.3125 34.644531 17.480469 C 33.523438 19.851562 32.097656 22.253906 30.601562 24.355469" fill="#6bb42f"></path><g clip-path="url(#10269d1958)"><path fill-rule="nonzero" fill-opacity="1" d="M 30.824219 7.519531 C 27.058594 6.632812 28.179688 2.503906 22.078125 2.503906 L 21.972656 2.503906 C 15.871094 2.503906 16.992188 6.632812 13.226562 7.519531 C 9.457031 8.402344 8.683594 13.207031 10.660156 17.480469 C 13.742188 23.980469 19.09375 30.765625 21.972656 30.765625 C 21.988281 30.765625 22.0625 30.765625 22.078125 30.765625 C 24.957031 30.765625 30.308594 23.980469 33.390625 17.480469 C 35.367188 13.207031 34.59375 8.402344 30.824219 7.519531" fill="#83c927"></path></g><g clip-path="url(#a511d85d01)"><path fill-rule="nonzero" fill-opacity="1" d="M 33.242188 17.792969 L 33.242188 17.792969 M 33.246094 17.785156 C 33.246094 17.78125 33.246094 17.78125 33.25 17.78125 C 33.246094 17.78125 33.246094 17.78125 33.246094 17.785156 M 33.25 17.777344 C 33.25 17.773438 33.253906 17.769531 33.253906 17.769531 C 33.253906 17.769531 33.25 17.773438 33.25 17.777344 M 33.253906 17.765625 C 33.300781 17.671875 33.347656 17.578125 33.390625 17.480469 C 33.347656 17.578125 33.300781 17.671875 33.253906 17.765625 M 34.445312 12.9375 C 34.445312 10.296875 33.261719 8.089844 30.824219 7.519531 C 27.058594 6.632812 28.179688 2.503906 22.078125 2.503906 L 21.972656 2.503906 L 22.078125 2.503906 C 28.179688 2.503906 27.058594 6.632812 30.824219 7.519531 C 33.261719 8.089844 34.445312 10.296875 34.445312 12.9375 M 10.226562 9.949219 C 10.800781 8.765625 11.769531 7.882812 13.148438 7.535156 C 12.460938 7.710938 11.878906 8.015625 11.390625 8.425781 C 11.648438 8.484375 11.90625 8.542969 12.15625 8.609375 C 11.578125 8.808594 11.082031 9.109375 10.664062 9.488281 C 10.726562 9.304688 10.796875 9.125 10.875 8.953125 C 10.628906 9.246094 10.417969 9.574219 10.242188 9.933594 C 10.238281 9.9375 10.234375 9.945312 10.226562 9.949219 M 13.148438 7.535156 C 13.152344 7.535156 13.152344 7.535156 13.15625 7.535156 C 13.152344 7.535156 13.152344 7.535156 13.148438 7.535156 M 13.15625 7.535156 C 13.160156 7.535156 13.160156 7.535156 13.160156 7.535156 C 13.160156 7.535156 13.160156 7.535156 13.15625 7.535156" fill="#95d333"></path></g><g clip-path="url(#0ece8f0dc8)"><path fill-rule="nonzero" fill-opacity="1" d="M 22.078125 30.765625 C 22.0625 30.765625 21.988281 30.765625 21.972656 30.765625 C 21.949219 30.765625 21.921875 30.765625 21.898438 30.765625 C 21.921875 30.765625 21.949219 30.765625 21.972656 30.765625 C 21.988281 30.765625 22.0625 30.765625 22.078125 30.765625 C 22.082031 30.765625 22.082031 30.765625 22.082031 30.765625 C 22.082031 30.765625 22.082031 30.765625 22.078125 30.765625 M 22.085938 30.765625 L 22.085938 30.765625 M 22.089844 30.765625 L 22.089844 30.765625 M 22.09375 30.765625 C 22.09375 30.765625 22.09375 30.765625 22.097656 30.765625 C 22.09375 30.765625 22.09375 30.765625 22.09375 30.765625 M 22.097656 30.765625 C 22.097656 30.765625 22.097656 30.765625 22.101562 30.765625 C 22.097656 30.765625 22.097656 30.765625 22.097656 30.765625 M 22.101562 30.765625 C 22.101562 30.765625 22.101562 30.765625 22.105469 30.765625 C 22.101562 30.765625 22.101562 30.765625 22.101562 30.765625 M 22.105469 30.765625 C 22.105469 30.765625 22.105469 30.765625 22.109375 30.765625 C 22.105469 30.765625 22.105469 30.765625 22.105469 30.765625 M 22.109375 30.765625 C 22.109375 30.765625 22.113281 30.765625 22.113281 30.765625 C 22.113281 30.765625 22.109375 30.765625 22.109375 30.765625 M 22.113281 30.765625 C 22.113281 30.765625 22.117188 30.765625 22.117188 30.765625 C 22.117188 30.765625 22.113281 30.765625 22.113281 30.765625 M 22.117188 30.765625 C 22.121094 30.765625 22.121094 30.765625 22.121094 30.765625 C 22.121094 30.765625 22.121094 30.765625 22.117188 30.765625 M 22.121094 30.765625 C 22.125 30.765625 22.125 30.765625 22.125 30.765625 C 22.125 30.765625 22.125 30.765625 22.121094 30.765625 M 22.125 30.765625 C 22.128906 30.765625 22.128906 30.765625 22.128906 30.765625 C 22.128906 30.765625 22.128906 30.765625 22.125 30.765625 M 22.132812 30.765625 L 22.132812 30.765625 M 22.136719 30.765625 L 22.136719 30.765625 M 22.140625 30.765625 L 22.140625 30.765625 M 22.144531 30.765625 C 22.144531 30.765625 22.144531 30.765625 22.148438 30.765625 C 22.144531 30.765625 22.144531 30.765625 22.144531 30.765625 M 22.148438 30.765625 C 22.148438 30.765625 22.148438 30.765625 22.152344 30.765625 C 22.152344 30.765625 22.148438 30.765625 22.148438 30.765625 M 22.152344 30.765625 C 22.152344 30.765625 22.152344 30.765625 22.15625 30.765625 C 22.15625 30.765625 22.152344 30.765625 22.152344 30.765625 M 22.15625 30.765625 C 22.15625 30.765625 22.15625 30.765625 22.160156 30.765625 C 22.15625 30.765625 22.15625 30.765625 22.15625 30.765625 M 22.167969 30.765625 L 22.167969 30.765625 M 22.171875 30.765625 L 22.171875 30.765625 M 22.175781 30.761719 L 22.175781 30.761719 M 22.183594 30.761719 L 22.183594 30.761719 M 22.1875 30.761719 L 22.1875 30.761719" fill="#d6e4bc"></path></g><g clip-path="url(#3729a00f08)"><path fill-rule="nonzero" fill-opacity="1" d="M 22.078125 30.765625 C 22.0625 30.765625 21.988281 30.765625 21.972656 30.765625 C 21.949219 30.765625 21.921875 30.765625 21.898438 30.765625 C 19.003906 30.652344 13.71875 23.929688 10.660156 17.480469 C 9.425781 14.808594 9.265625 11.929688 10.242188 9.933594 C 10.375 9.773438 10.515625 9.628906 10.664062 9.488281 C 10.011719 11.429688 10.253906 13.976562 11.355469 16.359375 C 14.441406 22.859375 19.792969 29.644531 22.667969 29.644531 C 22.6875 29.644531 22.757812 29.644531 22.777344 29.644531 C 23.835938 29.644531 25.226562 28.726562 26.714844 27.246094 C 26.714844 27.378906 26.71875 27.507812 26.71875 27.636719 C 27.421875 26.871094 28.136719 25.996094 28.84375 25.046875 C 26.4375 28.285156 23.917969 30.648438 22.203125 30.761719 C 22.195312 30.761719 22.191406 30.761719 22.1875 30.761719 C 22.1875 30.761719 22.1875 30.761719 22.183594 30.761719 C 22.179688 30.761719 22.179688 30.761719 22.175781 30.761719 C 22.171875 30.761719 22.171875 30.765625 22.171875 30.765625 C 22.167969 30.765625 22.167969 30.765625 22.167969 30.765625 C 22.164062 30.765625 22.164062 30.765625 22.160156 30.765625 C 22.15625 30.765625 22.15625 30.765625 22.15625 30.765625 C 22.152344 30.765625 22.152344 30.765625 22.152344 30.765625 C 22.148438 30.765625 22.148438 30.765625 22.148438 30.765625 C 22.144531 30.765625 22.144531 30.765625 22.144531 30.765625 C 22.144531 30.765625 22.140625 30.765625 22.140625 30.765625 C 22.140625 30.765625 22.140625 30.765625 22.136719 30.765625 C 22.136719 30.765625 22.132812 30.765625 22.132812 30.765625 C 22.128906 30.765625 22.128906 30.765625 22.128906 30.765625 C 22.128906 30.765625 22.128906 30.765625 22.125 30.765625 C 22.125 30.765625 22.125 30.765625 22.121094 30.765625 C 22.121094 30.765625 22.121094 30.765625 22.117188 30.765625 C 22.117188 30.765625 22.113281 30.765625 22.113281 30.765625 C 22.113281 30.765625 22.109375 30.765625 22.109375 30.765625 C 22.105469 30.765625 22.105469 30.765625 22.105469 30.765625 C 22.101562 30.765625 22.101562 30.765625 22.101562 30.765625 C 22.097656 30.765625 22.097656 30.765625 22.097656 30.765625 C 22.09375 30.765625 22.09375 30.765625 22.09375 30.765625 C 22.09375 30.765625 22.089844 30.765625 22.089844 30.765625 C 22.089844 30.765625 22.089844 30.765625 22.085938 30.765625 C 22.085938 30.765625 22.082031 30.765625 22.082031 30.765625 C 22.082031 30.765625 22.082031 30.765625 22.078125 30.765625" fill="#7aba2a"></path></g><path fill-rule="nonzero" fill-opacity="1" d="M 10.242188 9.933594 C 10.417969 9.574219 10.628906 9.246094 10.875 8.953125 C 10.796875 9.125 10.726562 9.304688 10.664062 9.488281 C 10.515625 9.628906 10.375 9.773438 10.242188 9.933594" fill="#89c42d"></path><path fill-rule="nonzero" fill-opacity="1" d="M 29.339844 9.058594 C 26.207031 8.324219 27.136719 4.894531 22.070312 4.894531 L 21.980469 4.894531 C 16.914062 4.894531 17.84375 8.324219 14.710938 9.058594 C 11.582031 9.792969 10.941406 13.785156 12.582031 17.339844 C 15.144531 22.738281 19.589844 28.375 21.980469 28.375 C 21.996094 28.375 22.054688 28.375 22.070312 28.375 C 24.460938 28.375 28.90625 22.738281 31.46875 17.339844 C 33.109375 13.785156 32.46875 9.792969 29.339844 9.058594" fill="#6fa72c"></path><path fill-rule="nonzero" fill-opacity="1" d="M 29.269531 9.171875 C 26.183594 8.449219 27.101562 5.066406 22.109375 5.066406 L 22.019531 5.066406 C 17.027344 5.066406 17.945312 8.449219 14.863281 9.171875 C 11.777344 9.898438 11.144531 13.828125 12.761719 17.328125 C 15.285156 22.648438 19.664062 28.203125 22.019531 28.203125 C 22.035156 28.203125 22.09375 28.203125 22.109375 28.203125 C 24.464844 28.203125 28.84375 22.648438 31.367188 17.328125 C 32.984375 13.828125 32.355469 9.898438 29.269531 9.171875" fill="#f5fad8"></path><path fill-rule="nonzero" fill-opacity="1" d="M 12.519531 10.894531 C 12.941406 10.164062 13.558594 9.601562 14.386719 9.300781 C 14.394531 9.304688 14.402344 9.304688 14.40625 9.308594 C 13.609375 9.601562 13.003906 10.136719 12.585938 10.828125 C 12.566406 10.851562 12.542969 10.871094 12.519531 10.894531" fill="#93c347"></path><path fill-rule="nonzero" fill-opacity="1" d="M 12.585938 10.828125 C 13.003906 10.136719 13.609375 9.601562 14.40625 9.308594 C 14.664062 9.402344 14.917969 9.5 15.164062 9.605469 C 14.890625 9.757812 14.578125 9.886719 14.203125 9.972656 C 13.554688 10.125 13.019531 10.425781 12.585938 10.828125" fill="#f9fce3"></path><path fill-rule="nonzero" fill-opacity="1" d="M 25.171875 20.421875 L 18.878906 20.421875 C 18.828125 20.421875 18.789062 20.382812 18.789062 20.332031 L 18.789062 14.71875 C 18.789062 14.667969 18.828125 14.628906 18.878906 14.628906 L 25.171875 14.628906 C 25.222656 14.628906 25.261719 14.667969 25.261719 14.71875 L 25.261719 20.332031 C 25.261719 20.382812 25.222656 20.421875 25.171875 20.421875" fill="#fbc740"></path><path fill-rule="nonzero" fill-opacity="1" d="M 20.414062 14.042969 L 20.414062 13.136719 C 20.414062 12.347656 20.9375 11.621094 21.703125 11.472656 C 22.734375 11.269531 23.636719 12.066406 23.636719 13.070312 L 23.636719 14.042969 C 23.636719 14.128906 23.707031 14.199219 23.789062 14.199219 L 24.367188 14.199219 C 24.453125 14.199219 24.519531 14.128906 24.519531 14.042969 L 24.519531 13.183594 C 24.519531 11.867188 23.570312 10.6875 22.273438 10.558594 C 20.789062 10.410156 19.53125 11.597656 19.53125 13.070312 L 19.53125 14.042969 C 19.53125 14.128906 19.597656 14.199219 19.683594 14.199219 L 20.261719 14.199219 C 20.34375 14.199219 20.414062 14.128906 20.414062 14.042969" fill="#83c927"></path><path fill-rule="nonzero" fill-opacity="1" d="M 22.722656 17.8125 C 22.722656 17.441406 22.429688 17.144531 22.066406 17.144531 C 21.703125 17.144531 21.40625 17.441406 21.40625 17.8125 C 21.40625 18.03125 21.519531 18.21875 21.683594 18.339844 L 21.683594 19.089844 C 21.683594 19.246094 21.808594 19.375 21.960938 19.375 L 22.167969 19.375 C 22.324219 19.375 22.449219 19.246094 22.449219 19.089844 L 22.449219 18.339844 C 22.609375 18.21875 22.722656 18.03125 22.722656 17.8125" fill="#f5fad8"></path><path fill-rule="nonzero" fill-opacity="1" d="M 13.171875 7.53125 C 13.175781 7.53125 13.175781 7.53125 13.175781 7.53125 C 13.171875 7.53125 13.175781 7.53125 13.171875 7.53125 M 13.183594 7.527344 L 13.183594 7.527344 M 13.1875 7.527344 C 13.191406 7.527344 13.191406 7.527344 13.191406 7.527344 C 13.191406 7.527344 13.191406 7.527344 13.1875 7.527344 M 13.199219 7.523438 C 13.199219 7.523438 13.199219 7.523438 13.203125 7.523438 C 13.199219 7.523438 13.199219 7.523438 13.199219 7.523438 M 13.207031 7.523438 C 13.207031 7.523438 13.207031 7.523438 13.210938 7.523438 C 13.207031 7.523438 13.207031 7.523438 13.207031 7.523438 M 13.214844 7.519531 C 13.214844 7.519531 13.214844 7.519531 13.21875 7.519531 C 13.214844 7.519531 13.214844 7.519531 13.214844 7.519531" fill="#fbfdf0"></path><path fill-rule="nonzero" fill-opacity="1" d="M 26.714844 27.246094 C 26.703125 26.535156 26.65625 25.796875 26.566406 25.050781 C 28.34375 22.949219 30.15625 20.113281 31.46875 17.339844 C 33.109375 13.785156 32.46875 9.792969 29.339844 9.058594 C 26.207031 8.324219 27.136719 4.894531 22.070312 4.894531 L 21.980469 4.894531 C 16.914062 4.894531 17.84375 8.324219 14.710938 9.058594 C 14.527344 9.101562 14.347656 9.160156 14.179688 9.226562 C 13.535156 8.996094 12.863281 8.789062 12.15625 8.609375 C 12.300781 8.558594 12.449219 8.515625 12.605469 8.480469 C 16.375 7.59375 15.253906 3.464844 21.351562 3.464844 L 21.460938 3.464844 C 27.5625 3.464844 26.4375 7.59375 30.207031 8.480469 C 33.976562 9.363281 34.75 14.167969 32.773438 18.441406 C 32.179688 19.695312 31.5 20.960938 30.769531 22.1875 C 29.449219 24.15625 28.042969 25.925781 26.714844 27.246094 M 28.84375 25.046875 C 29.3125 24.417969 29.773438 23.757812 30.226562 23.070312 C 30.226562 23.074219 30.226562 23.074219 30.222656 23.078125 C 31.332031 21.402344 32.371094 19.59375 33.242188 17.792969 C 32.015625 20.324219 30.457031 22.882812 28.84375 25.046875 M 33.242188 17.792969 C 33.242188 17.789062 33.246094 17.789062 33.246094 17.785156 C 33.246094 17.789062 33.242188 17.789062 33.242188 17.792969 M 33.25 17.78125 C 33.25 17.777344 33.25 17.777344 33.25 17.777344 C 33.25 17.777344 33.25 17.777344 33.25 17.78125 M 33.253906 17.769531 C 33.253906 17.765625 33.253906 17.765625 33.253906 17.765625 C 33.253906 17.765625 33.253906 17.765625 33.253906 17.769531 M 13.148438 7.535156 L 13.148438 7.535156 M 13.15625 7.535156 L 13.15625 7.535156 M 13.160156 7.535156 C 13.164062 7.53125 13.167969 7.53125 13.171875 7.53125 C 13.175781 7.53125 13.171875 7.53125 13.175781 7.53125 C 13.175781 7.53125 13.179688 7.527344 13.183594 7.527344 C 13.1875 7.527344 13.1875 7.527344 13.1875 7.527344 C 13.191406 7.527344 13.191406 7.527344 13.191406 7.527344 C 13.195312 7.523438 13.195312 7.523438 13.199219 7.523438 C 13.1875 7.527344 13.171875 7.53125 13.160156 7.535156 M 13.199219 7.523438 C 13.199219 7.523438 13.199219 7.523438 13.203125 7.523438 C 13.203125 7.523438 13.203125 7.523438 13.207031 7.523438 C 13.207031 7.523438 13.207031 7.523438 13.210938 7.523438 C 13.210938 7.519531 13.214844 7.519531 13.214844 7.519531 C 13.210938 7.519531 13.207031 7.523438 13.199219 7.523438 M 13.21875 7.519531 C 13.21875 7.519531 13.222656 7.519531 13.226562 7.519531 C 13.222656 7.519531 13.21875 7.519531 13.21875 7.519531" fill="#a1d841"></path><g clip-path="url(#55dc27bd1f)"><path fill-rule="nonzero" fill-opacity="1" d="M 13.214844 7.519531 C 13.214844 7.519531 13.214844 7.519531 13.21875 7.519531 C 13.214844 7.519531 13.214844 7.519531 13.214844 7.519531 M 13.34375 7.488281 C 16.96875 6.546875 15.9375 2.503906 21.972656 2.503906 C 15.9375 2.503906 16.96875 6.546875 13.34375 7.488281" fill="#fafdf0"></path></g><g clip-path="url(#6036ecd213)"><path fill-rule="nonzero" fill-opacity="1" d="M 30.222656 23.078125 C 30.226562 23.074219 30.226562 23.074219 30.226562 23.070312 C 30.578125 22.539062 30.921875 21.996094 31.257812 21.441406 C 31.09375 21.691406 30.933594 21.941406 30.769531 22.1875 C 31.5 20.960938 32.179688 19.695312 32.773438 18.441406 C 34.75 14.167969 33.976562 9.363281 30.207031 8.480469 C 26.4375 7.59375 27.5625 3.464844 21.460938 3.464844 L 21.351562 3.464844 C 15.253906 3.464844 16.375 7.59375 12.605469 8.480469 C 12.449219 8.515625 12.300781 8.558594 12.15625 8.609375 C 11.90625 8.542969 11.648438 8.484375 11.390625 8.425781 C 11.878906 8.015625 12.460938 7.710938 13.148438 7.535156 C 13.152344 7.535156 13.152344 7.535156 13.15625 7.535156 C 13.160156 7.535156 13.160156 7.535156 13.160156 7.535156 C 13.171875 7.53125 13.1875 7.527344 13.199219 7.523438 C 13.207031 7.523438 13.210938 7.519531 13.214844 7.519531 C 13.214844 7.519531 13.214844 7.519531 13.21875 7.519531 C 13.21875 7.519531 13.222656 7.519531 13.226562 7.519531 C 13.265625 7.507812 13.304688 7.5 13.34375 7.488281 C 16.96875 6.546875 15.9375 2.503906 21.972656 2.503906 L 22.078125 2.503906 C 28.179688 2.503906 27.058594 6.632812 30.824219 7.519531 C 33.261719 8.089844 34.445312 10.296875 34.445312 12.9375 C 34.445312 14.386719 34.089844 15.96875 33.390625 17.480469 C 33.347656 17.578125 33.300781 17.671875 33.253906 17.765625 C 33.253906 17.765625 33.253906 17.765625 33.253906 17.769531 C 33.253906 17.769531 33.25 17.773438 33.25 17.777344 C 33.25 17.777344 33.25 17.777344 33.25 17.78125 C 33.246094 17.78125 33.246094 17.78125 33.246094 17.785156 C 33.246094 17.789062 33.242188 17.789062 33.242188 17.792969 C 32.371094 19.59375 31.332031 21.402344 30.222656 23.078125" fill="#aedd5b"></path></g><path fill-rule="nonzero" fill-opacity="1" d="M 26.71875 27.636719 C 26.71875 27.507812 26.714844 27.378906 26.714844 27.246094 C 28.042969 25.925781 29.449219 24.15625 30.769531 22.1875 C 30.589844 22.484375 30.410156 22.777344 30.226562 23.070312 C 29.773438 23.757812 29.3125 24.417969 28.84375 25.046875 C 28.136719 25.996094 27.421875 26.871094 26.71875 27.636719" fill="#99d13d"></path><path fill-rule="nonzero" fill-opacity="1" d="M 30.226562 23.070312 C 30.410156 22.777344 30.589844 22.484375 30.769531 22.1875 C 30.933594 21.941406 31.09375 21.691406 31.257812 21.441406 C 30.921875 21.996094 30.578125 22.539062 30.226562 23.070312" fill="#a4d856"></path><path fill-rule="nonzero" fill-opacity="1" d="M 26.566406 25.050781 C 26.558594 25.003906 26.554688 24.957031 26.546875 24.914062 C 28.292969 22.84375 30.074219 20.054688 31.367188 17.328125 C 32.984375 13.828125 32.355469 9.898438 29.269531 9.171875 C 26.183594 8.449219 27.101562 5.066406 22.109375 5.066406 L 21.980469 5.066406 C 16.988281 5.066406 17.90625 8.449219 14.820312 9.171875 C 14.671875 9.207031 14.527344 9.25 14.386719 9.300781 C 14.320312 9.277344 14.25 9.25 14.179688 9.226562 C 14.347656 9.160156 14.527344 9.101562 14.710938 9.058594 C 17.84375 8.324219 16.914062 4.894531 21.980469 4.894531 L 22.070312 4.894531 C 27.136719 4.894531 26.207031 8.324219 29.339844 9.058594 C 32.46875 9.792969 33.109375 13.785156 31.46875 17.339844 C 30.15625 20.113281 28.34375 22.949219 26.566406 25.050781 M 16.738281 8.0625 C 16.917969 7.832031 17.101562 7.597656 17.304688 7.378906 C 17.121094 7.613281 16.941406 7.84375 16.738281 8.0625" fill="#91c43e"></path><path fill-rule="nonzero" fill-opacity="1" d="M 26.546875 24.914062 C 26.339844 23.246094 25.925781 21.519531 25.261719 19.835938 L 25.261719 14.71875 C 25.261719 14.667969 25.222656 14.628906 25.171875 14.628906 L 22.167969 14.628906 C 21.644531 14.011719 21.066406 13.421875 20.433594 12.859375 C 20.542969 12.183594 21.03125 11.605469 21.703125 11.472656 C 21.8125 11.449219 21.921875 11.441406 22.027344 11.441406 C 22.914062 11.441406 23.636719 12.171875 23.636719 13.070312 L 23.636719 14.042969 C 23.636719 14.128906 23.707031 14.199219 23.789062 14.199219 L 24.367188 14.199219 C 24.453125 14.199219 24.519531 14.128906 24.519531 14.042969 L 24.519531 13.183594 C 24.519531 11.867188 23.570312 10.6875 22.273438 10.558594 C 22.191406 10.550781 22.105469 10.546875 22.023438 10.546875 C 20.941406 10.546875 20.019531 11.246094 19.675781 12.222656 C 18.386719 11.207031 16.890625 10.316406 15.164062 9.605469 C 15.855469 9.210938 16.285156 8.640625 16.738281 8.0625 C 16.941406 7.84375 17.121094 7.613281 17.304688 7.378906 C 18.0625 6.554688 19.109375 5.867188 21.363281 5.867188 L 21.453125 5.867188 C 26.445312 5.867188 25.527344 9.25 28.609375 9.972656 C 31.695312 10.699219 32.328125 14.628906 30.710938 18.128906 C 29.679688 20.300781 28.34375 22.5 26.960938 24.355469 C 28.558594 22.355469 30.148438 19.820312 31.328125 17.328125 C 32.945312 13.828125 32.3125 9.898438 29.230469 9.171875 C 26.144531 8.449219 27.0625 5.066406 22.070312 5.066406 L 22.019531 5.066406 L 22.109375 5.066406 C 27.101562 5.066406 26.183594 8.449219 29.269531 9.171875 C 32.355469 9.898438 32.984375 13.828125 31.367188 17.328125 C 30.074219 20.054688 28.292969 22.84375 26.546875 24.914062" fill="#f4f9d5"></path><path fill-rule="nonzero" fill-opacity="1" d="M 14.40625 9.308594 C 14.402344 9.304688 14.394531 9.304688 14.386719 9.300781 C 14.527344 9.25 14.671875 9.207031 14.820312 9.171875 C 17.90625 8.449219 16.988281 5.066406 21.980469 5.066406 L 22.019531 5.066406 C 19.058594 5.066406 18.175781 6.257812 17.304688 7.378906 C 17.101562 7.597656 16.917969 7.832031 16.738281 8.0625 C 16.28125 8.554688 15.730469 8.96875 14.863281 9.171875 C 14.703125 9.210938 14.550781 9.253906 14.40625 9.308594" fill="#acd669"></path><path fill-rule="nonzero" fill-opacity="1" d="M 26.960938 24.355469 C 28.34375 22.5 29.679688 20.300781 30.710938 18.128906 C 32.328125 14.628906 31.695312 10.699219 28.609375 9.972656 C 25.527344 9.25 26.445312 5.867188 21.453125 5.867188 L 21.363281 5.867188 C 19.109375 5.867188 18.0625 6.554688 17.304688 7.378906 C 18.175781 6.257812 19.058594 5.066406 22.019531 5.066406 L 22.070312 5.066406 C 27.0625 5.066406 26.144531 8.449219 29.230469 9.171875 C 32.3125 9.898438 32.945312 13.828125 31.328125 17.328125 C 30.148438 19.820312 28.558594 22.355469 26.960938 24.355469 M 15.164062 9.605469 C 14.917969 9.5 14.664062 9.402344 14.40625 9.308594 C 14.550781 9.253906 14.703125 9.210938 14.863281 9.171875 C 15.730469 8.96875 16.28125 8.554688 16.738281 8.0625 C 16.285156 8.640625 15.855469 9.210938 15.164062 9.605469" fill="#f7fbdd"></path><path fill-rule="nonzero" fill-opacity="1" d="M 25.261719 19.835938 C 24.542969 18.011719 23.53125 16.234375 22.167969 14.628906 L 25.171875 14.628906 C 25.222656 14.628906 25.261719 14.667969 25.261719 14.71875 L 25.261719 19.835938" fill="#f8d963"></path><path fill-rule="nonzero" fill-opacity="1" d="M 24.367188 14.199219 L 23.789062 14.199219 C 23.707031 14.199219 23.636719 14.128906 23.636719 14.042969 L 23.636719 13.070312 C 23.636719 12.171875 22.914062 11.441406 22.027344 11.441406 C 21.921875 11.441406 21.8125 11.449219 21.703125 11.472656 C 21.03125 11.605469 20.542969 12.183594 20.433594 12.859375 C 20.191406 12.644531 19.9375 12.433594 19.675781 12.222656 C 20.019531 11.246094 20.941406 10.546875 22.023438 10.546875 C 22.105469 10.546875 22.191406 10.550781 22.273438 10.558594 C 23.570312 10.6875 24.519531 11.867188 24.519531 13.183594 L 24.519531 14.042969 C 24.519531 14.128906 24.453125 14.199219 24.367188 14.199219" fill="#a1d841"></path><path fill-rule="nonzero" fill-opacity="1" d="M 36.296875 19.160156 C 36.039062 19.160156 35.835938 19.257812 35.695312 19.457031 C 35.550781 19.652344 35.480469 19.929688 35.480469 20.28125 C 35.480469 21.019531 35.753906 21.386719 36.296875 21.386719 C 36.527344 21.386719 36.804688 21.328125 37.128906 21.214844 L 37.128906 21.800781 C 36.863281 21.914062 36.5625 21.96875 36.234375 21.96875 C 35.757812 21.96875 35.398438 21.824219 35.144531 21.53125 C 34.894531 21.242188 34.769531 20.824219 34.769531 20.277344 C 34.769531 19.9375 34.832031 19.636719 34.953125 19.378906 C 35.078125 19.117188 35.253906 18.921875 35.484375 18.785156 C 35.714844 18.644531 35.988281 18.578125 36.296875 18.578125 C 36.613281 18.578125 36.933594 18.65625 37.25 18.808594 L 37.027344 19.378906 C 36.90625 19.320312 36.785156 19.269531 36.660156 19.226562 C 36.539062 19.179688 36.417969 19.160156 36.296875 19.160156" fill="#f5fad8"></path><path fill-rule="nonzero" fill-opacity="1" d="M 39.699219 21.925781 L 37.820312 21.925781 L 37.820312 18.625 L 39.699219 18.625 L 39.699219 19.199219 L 38.511719 19.199219 L 38.511719 19.921875 L 39.617188 19.921875 L 39.617188 20.496094 L 38.511719 20.496094 L 38.511719 21.347656 L 39.699219 21.347656 L 39.699219 21.925781" fill="#f5fad8"></path><path fill-rule="nonzero" fill-opacity="1" d="M 41.070312 20.089844 L 41.292969 20.089844 C 41.511719 20.089844 41.671875 20.050781 41.777344 19.976562 C 41.878906 19.90625 41.933594 19.789062 41.933594 19.632812 C 41.933594 19.476562 41.878906 19.363281 41.773438 19.296875 C 41.667969 19.230469 41.503906 19.199219 41.28125 19.199219 L 41.070312 19.199219 Z M 41.070312 20.65625 L 41.070312 21.925781 L 40.378906 21.925781 L 40.378906 18.625 L 41.328125 18.625 C 41.769531 18.625 42.097656 18.707031 42.3125 18.867188 C 42.523438 19.03125 42.628906 19.28125 42.628906 19.613281 C 42.628906 19.808594 42.578125 19.980469 42.472656 20.128906 C 42.367188 20.28125 42.21875 20.402344 42.023438 20.484375 C 42.515625 21.226562 42.832031 21.707031 42.984375 21.925781 L 42.214844 21.925781 L 41.4375 20.65625 L 41.070312 20.65625" fill="#f5fad8"></path><path fill-rule="nonzero" fill-opacity="1" d="M 44.648438 21.925781 L 43.957031 21.925781 L 43.957031 19.207031 L 43.074219 19.207031 L 43.074219 18.625 L 45.535156 18.625 L 45.535156 19.207031 L 44.648438 19.207031 L 44.648438 21.925781" fill="#f5fad8"></path><path fill-rule="nonzero" fill-opacity="1" d="M 46.035156 21.925781 L 46.035156 18.625 L 46.726562 18.625 L 46.726562 21.925781 L 46.035156 21.925781" fill="#f5fad8"></path><path fill-rule="nonzero" fill-opacity="1" d="M 48.226562 21.925781 L 47.546875 21.925781 L 47.546875 18.625 L 49.414062 18.625 L 49.414062 19.199219 L 48.226562 19.199219 L 48.226562 20.046875 L 49.332031 20.046875 L 49.332031 20.617188 L 48.226562 20.617188 L 48.226562 21.925781" fill="#f5fad8"></path><path fill-rule="nonzero" fill-opacity="1" d="M 50.050781 21.925781 L 50.050781 18.625 L 50.742188 18.625 L 50.742188 21.925781 L 50.050781 21.925781" fill="#f5fad8"></path><path fill-rule="nonzero" fill-opacity="1" d="M 52.949219 19.160156 C 52.6875 19.160156 52.484375 19.257812 52.34375 19.457031 C 52.203125 19.652344 52.128906 19.929688 52.128906 20.28125 C 52.128906 21.019531 52.402344 21.386719 52.949219 21.386719 C 53.175781 21.386719 53.453125 21.328125 53.777344 21.214844 L 53.777344 21.800781 C 53.511719 21.914062 53.210938 21.96875 52.882812 21.96875 C 52.410156 21.96875 52.046875 21.824219 51.796875 21.53125 C 51.542969 21.242188 51.417969 20.824219 51.417969 20.277344 C 51.417969 19.9375 51.480469 19.636719 51.601562 19.378906 C 51.726562 19.117188 51.902344 18.921875 52.136719 18.785156 C 52.367188 18.644531 52.636719 18.578125 52.949219 18.578125 C 53.265625 18.578125 53.582031 18.65625 53.902344 18.808594 L 53.679688 19.378906 C 53.558594 19.320312 53.433594 19.269531 53.3125 19.226562 C 53.1875 19.179688 53.066406 19.160156 52.949219 19.160156" fill="#f5fad8"></path><path fill-rule="nonzero" fill-opacity="1" d="M 56.066406 20.550781 C 55.847656 19.839844 55.722656 19.4375 55.699219 19.34375 C 55.671875 19.25 55.648438 19.175781 55.636719 19.121094 C 55.589844 19.316406 55.449219 19.792969 55.214844 20.550781 Z M 56.46875 21.925781 L 56.230469 21.140625 L 55.042969 21.140625 L 54.804688 21.925781 L 54.0625 21.925781 L 55.210938 18.609375 L 56.058594 18.609375 L 57.210938 21.925781 L 56.46875 21.925781" fill="#f5fad8"></path><path fill-rule="nonzero" fill-opacity="1" d="M 58.878906 21.925781 L 58.1875 21.925781 L 58.1875 19.207031 L 57.304688 19.207031 L 57.304688 18.625 L 59.765625 18.625 L 59.765625 19.207031 L 58.878906 19.207031 L 58.878906 21.925781" fill="#f5fad8"></path><path fill-rule="nonzero" fill-opacity="1" d="M 62.140625 21.925781 L 60.265625 21.925781 L 60.265625 18.625 L 62.140625 18.625 L 62.140625 19.199219 L 60.957031 19.199219 L 60.957031 19.921875 L 62.058594 19.921875 L 62.058594 20.496094 L 60.957031 20.496094 L 60.957031 21.347656 L 62.140625 21.347656 L 62.140625 21.925781" fill="#f5fad8"></path><path fill-rule="nonzero" fill-opacity="1" d="M 45.855469 15.125 C 45.855469 15.6875 45.65625 16.128906 45.257812 16.453125 C 44.859375 16.777344 44.304688 16.9375 43.59375 16.9375 C 42.9375 16.9375 42.355469 16.8125 41.851562 16.5625 L 41.851562 15.339844 C 42.269531 15.527344 42.617188 15.65625 42.90625 15.734375 C 43.191406 15.808594 43.453125 15.847656 43.691406 15.847656 C 43.980469 15.847656 44.199219 15.792969 44.351562 15.683594 C 44.503906 15.574219 44.578125 15.40625 44.578125 15.191406 C 44.578125 15.066406 44.546875 14.960938 44.476562 14.863281 C 44.410156 14.769531 44.3125 14.679688 44.183594 14.589844 C 44.050781 14.503906 43.785156 14.363281 43.386719 14.167969 C 43.011719 13.992188 42.730469 13.820312 42.542969 13.652344 C 42.355469 13.488281 42.203125 13.296875 42.09375 13.082031 C 41.980469 12.863281 41.925781 12.605469 41.925781 12.316406 C 41.925781 11.765625 42.109375 11.332031 42.476562 11.015625 C 42.84375 10.703125 43.355469 10.546875 44.003906 10.546875 C 44.324219 10.546875 44.625 10.582031 44.917969 10.660156 C 45.207031 10.738281 45.511719 10.84375 45.824219 10.984375 L 45.40625 12.007812 C 45.078125 11.871094 44.808594 11.777344 44.59375 11.722656 C 44.378906 11.667969 44.167969 11.644531 43.960938 11.644531 C 43.714844 11.644531 43.527344 11.699219 43.394531 11.816406 C 43.261719 11.933594 43.199219 12.085938 43.199219 12.273438 C 43.199219 12.386719 43.222656 12.488281 43.277344 12.574219 C 43.332031 12.664062 43.414062 12.746094 43.53125 12.828125 C 43.648438 12.90625 43.921875 13.054688 44.355469 13.261719 C 44.929688 13.539062 45.324219 13.820312 45.535156 14.097656 C 45.75 14.378906 45.855469 14.71875 45.855469 15.125" fill="#f5fad8"></path><path fill-rule="nonzero" fill-opacity="1" d="M 50.59375 15.125 C 50.59375 15.6875 50.394531 16.128906 49.992188 16.453125 C 49.59375 16.777344 49.039062 16.9375 48.328125 16.9375 C 47.675781 16.9375 47.09375 16.8125 46.589844 16.5625 L 46.589844 15.339844 C 47.003906 15.527344 47.355469 15.65625 47.640625 15.734375 C 47.929688 15.808594 48.191406 15.847656 48.429688 15.847656 C 48.714844 15.847656 48.933594 15.792969 49.085938 15.683594 C 49.238281 15.574219 49.316406 15.40625 49.316406 15.191406 C 49.316406 15.066406 49.28125 14.960938 49.214844 14.863281 C 49.148438 14.769531 49.050781 14.679688 48.917969 14.589844 C 48.789062 14.503906 48.523438 14.363281 48.125 14.167969 C 47.75 13.992188 47.46875 13.820312 47.277344 13.652344 C 47.089844 13.488281 46.941406 13.296875 46.832031 13.082031 C 46.71875 12.863281 46.660156 12.605469 46.660156 12.316406 C 46.660156 11.765625 46.847656 11.332031 47.214844 11.015625 C 47.582031 10.703125 48.089844 10.546875 48.742188 10.546875 C 49.058594 10.546875 49.363281 10.582031 49.65625 10.660156 C 49.945312 10.738281 50.246094 10.84375 50.5625 10.984375 L 50.144531 12.007812 C 49.816406 11.871094 49.546875 11.777344 49.332031 11.722656 C 49.117188 11.667969 48.90625 11.644531 48.699219 11.644531 C 48.453125 11.644531 48.261719 11.699219 48.132812 11.816406 C 48 11.933594 47.933594 12.085938 47.933594 12.273438 C 47.933594 12.386719 47.960938 12.488281 48.015625 12.574219 C 48.066406 12.664062 48.152344 12.746094 48.269531 12.828125 C 48.382812 12.90625 48.660156 13.054688 49.09375 13.261719 C 49.667969 13.539062 50.0625 13.820312 50.273438 14.097656 C 50.488281 14.378906 50.59375 14.71875 50.59375 15.125" fill="#f5fad8"></path><path fill-rule="nonzero" fill-opacity="1" d="M 51.707031 16.851562 L 51.707031 10.636719 L 53.007812 10.636719 L 53.007812 15.765625 L 55.496094 15.765625 L 55.496094 16.851562 L 51.707031 16.851562" fill="#f5fad8"></path><path fill-rule="nonzero" fill-opacity="1" d="M 40.140625 14.3125 L 36.925781 14.3125 C 36.769531 14.3125 36.644531 14.1875 36.644531 14.027344 C 36.644531 13.871094 36.769531 13.742188 36.925781 13.742188 L 40.140625 13.742188 C 40.296875 13.742188 40.421875 13.871094 40.421875 14.027344 C 40.421875 14.1875 40.296875 14.3125 40.140625 14.3125" fill="#f5fad8"></path><path fill-rule="nonzero" fill-opacity="1" d="M 60.425781 14.3125 L 57.210938 14.3125 C 57.054688 14.3125 56.925781 14.1875 56.925781 14.027344 C 56.925781 13.871094 57.054688 13.742188 57.210938 13.742188 L 60.425781 13.742188 C 60.582031 13.742188 60.707031 13.871094 60.707031 14.027344 C 60.707031 14.1875 60.582031 14.3125 60.425781 14.3125" fill="#f5fad8"></path></svg>